<svg xmlns="http://www.w3.org/2000/svg" width="511.948" height="512" viewBox="0 0 511.948 512">
  <path id="home-icon-filled-white" d="M498.2,222.7l-.035-.035L289.3,13.812a47.124,47.124,0,0,0-66.66,0L13.9,222.55c-.07.07-.141.145-.211.215a47.114,47.114,0,0,0,31.367,80.3q.721.07,1.453.07h8.324v153.7A55.226,55.226,0,0,0,110,512h81.711a15,15,0,0,0,15-15V376.5a25.2,25.2,0,0,1,25.168-25.168h48.2A25.2,25.2,0,0,1,305.243,376.5V497a15,15,0,0,0,15,15h81.711a55.226,55.226,0,0,0,55.168-55.16V303.14h7.719A47.139,47.139,0,0,0,498.2,222.695Zm0,0" transform="translate(0 0.001)" fill="#fff"/>
</svg>
